<?xml version="1.0" encoding="UTF-8"?>
<svg version="1.1" xmlns="http://www.w3.org/2000/svg" width="512" height="512">
<path d="M0 0 C1.6445116 -0.00874829 1.6445116 -0.00874829 3.32224566 -0.01767331 C5.12075784 -0.01200433 5.12075784 -0.01200433 6.9556036 -0.00622082 C8.23364438 -0.01004636 9.51168515 -0.01387191 10.82845443 -0.01781338 C14.37411535 -0.02810771 17.9196753 -0.02590789 21.46534455 -0.02163279 C25.29034559 -0.01916803 29.11532218 -0.02817685 32.94031429 -0.03567028 C40.43475599 -0.04842827 47.92916188 -0.05020944 55.4236126 -0.04787002 C61.51797923 -0.04608719 67.61233499 -0.04783576 73.70670033 -0.05209446 C74.57402163 -0.05268965 75.44134293 -0.05328484 76.3349467 -0.05389806 C78.09696826 -0.05510983 79.85898982 -0.05632396 81.62101137 -0.05754044 C98.15242257 -0.06842114 114.68381339 -0.06625154 131.21522575 -0.06015559 C146.32556572 -0.05499134 161.43584113 -0.06622794 176.54616833 -0.08525381 C192.06824101 -0.10464787 207.59028318 -0.11288512 223.11236805 -0.10913056 C231.82392432 -0.1072202 240.53542571 -0.10968951 249.24697208 -0.1238451 C256.66710722 -0.13578018 264.08715373 -0.13714034 271.50729013 -0.12505493 C275.29004185 -0.11917987 279.07263164 -0.11802837 282.85537243 -0.13005733 C286.9651634 -0.14297371 291.07457164 -0.13241842 295.18436337 -0.11974621 C296.36775643 -0.12712049 297.5511495 -0.13449478 298.77040297 -0.14209253 C316.73268597 -0.02595534 332.27466391 6.72953662 344.92458248 19.39900684 C359.10328012 35.03192988 362.33753903 52.28697523 361.65358639 72.62361622 C361.21407269 80.93273826 358.56067116 87.63398552 354.82692623 94.94197559 C354.52464108 95.53623341 354.22235592 96.13049122 353.91091061 96.74275684 C350.89735923 102.24839999 346.78039418 106.6861693 342.51442623 111.25447559 C343.66273922 111.26849415 343.66273922 111.26849415 344.83425045 111.28279591 C348.35325945 111.33697537 351.87100639 111.42052989 355.38942623 111.50447559 C357.19540279 111.52574512 357.19540279 111.52574512 359.03786373 111.54744434 C369.0173892 111.8186271 377.51209667 113.57364421 384.98317623 120.55135059 C392.39587708 128.7960893 394.09267297 137.53012919 393.83083248 148.33260059 C393.42069908 153.41622941 392.21223352 156.97703114 389.51442623 161.25447559 C389.16380123 161.87580372 388.81317623 162.49713184 388.45192623 163.13728809 C384.68637317 169.17786279 378.98417232 172.55815528 372.70192623 175.62947559 C367.66256493 176.61758565 362.63175288 176.40352394 357.51442623 176.25447559 C353.81664292 191.30973621 353.81664292 209.19921497 357.51442623 224.25447559 C358.27626217 224.20806934 359.03809811 224.16166309 359.82301998 224.11385059 C369.97630403 223.7589293 376.78143691 226.28482664 384.72536373 232.55135059 C390.21753888 237.77970947 393.18146059 244.51829136 393.85036373 252.02400684 C394.11794229 264.00917415 391.5950464 272.204181 383.51442623 281.25447559 C382.85442623 281.58447559 382.19442623 281.91447559 381.51442623 282.25447559 C382.26466061 282.79974903 383.01489498 283.34502247 383.78786373 283.90681934 C404.69219187 299.30862282 420.1256323 317.92329011 425.04274654 344.06306934 C428.3767968 366.62140521 424.6456376 386.634224 413.51442623 406.25447559 C413.03102779 407.10654591 412.54762936 407.95861622 412.04958248 408.83650684 C399.75760264 428.61056137 379.84010472 441.67244241 357.41288108 446.94070646 C349.22338358 448.72113314 341.19806162 448.81232066 332.85158443 448.76241016 C331.13977881 448.76703188 329.42797717 448.77339324 327.71618366 448.78131914 C323.06300756 448.7978599 318.41016389 448.78983656 313.75698733 448.77737427 C308.71955366 448.76826349 303.68217418 448.7823228 298.64475155 448.79329395 C288.79872181 448.81101674 278.95281451 448.80726802 269.10678011 448.79564339 C261.10477356 448.78658879 253.10280119 448.7853938 245.10079098 448.78973866 C243.95946862 448.79035159 242.81814626 448.79096452 241.64223838 448.79159603 C239.32335503 448.79287498 237.00447169 448.79417184 234.68558836 448.79548639 C212.97942918 448.80687282 191.27333776 448.79380678 169.56718969 448.77228492 C150.94881935 448.75439646 132.33054871 448.75753621 113.71218014 448.77595997 C92.06824923 448.79736775 70.42437749 448.8057946 48.78043747 448.79351091 C46.47280344 448.79223676 44.16516941 448.79097927 41.85753536 448.78973866 C40.72223902 448.78912155 39.58694268 448.78850445 38.41724342 448.78786865 C30.42224895 448.78441692 22.42729208 448.79023989 14.43230343 448.79965687 C4.69351788 448.81087632 -5.04513872 448.80783704 -14.7839095 448.78653389 C-19.75116842 448.77602582 -24.71821233 448.7718979 -29.68546963 448.7851305 C-34.23375227 448.79706388 -38.78162088 448.79047629 -43.32986605 448.76922029 C-44.97351378 448.7647585 -46.61719661 448.76701101 -48.2608217 448.77672344 C-56.69669593 448.8227428 -64.09772417 448.78804004 -71.48557377 444.25447559 C-72.29510502 443.78525684 -73.10463627 443.31603809 -73.93869877 442.83260059 C-80.57500619 437.9275038 -84.29460259 432.22076993 -86.48557377 424.25447559 C-87.27761289 415.36705993 -87.38488521 407.02246281 -82.48557377 399.25447559 C-81.95963627 398.32248341 -81.95963627 398.32248341 -81.42307377 397.37166309 C-77.65752071 391.33108839 -71.95531986 387.9507959 -65.67307377 384.87947559 C-60.63371247 383.89136554 -55.60290041 384.10542724 -50.48557377 384.25447559 C-46.78779046 369.19921497 -46.78779046 351.30973621 -50.48557377 336.25447559 C-51.23580814 336.30088184 -51.98604252 336.34728809 -52.75901127 336.39510059 C-61.89337261 336.71721913 -69.02496639 335.24145253 -76.29807377 329.50447559 C-82.35580766 323.84678073 -86.07664745 316.80021467 -86.82151127 308.52010059 C-87.0629212 297.79062286 -85.8110907 288.94707453 -78.18869877 280.78572559 C-70.56511391 273.93149333 -62.74338523 271.9709403 -52.71213627 271.84041309 C-51.32651997 271.81136387 -51.32651997 271.81136387 -49.91291142 271.78172779 C-46.97889113 271.72221854 -44.044831 271.67566164 -41.11057377 271.62947559 C-39.11446344 271.59126943 -37.11836914 271.55221617 -35.12229252 271.51228809 C-30.24351726 271.41654064 -25.36466486 271.3324042 -20.48557377 271.25447559 C-21.8062183 270.076917 -21.8062183 270.076917 -23.15354252 268.87556934 C-24.32704093 267.81472678 -25.50019993 266.75350866 -26.67307377 265.69197559 C-27.2512183 265.17828419 -27.82936283 264.66459278 -28.42502689 264.13533497 C-33.24909945 259.74733676 -38.12579434 255.28690218 -38.92307377 248.56697559 C-38.48557377 245.25447559 -38.48557377 245.25447559 -37.28244877 243.44978809 C-36.17125739 241.11315928 -36.17125739 241.11315928 -37.56760502 238.19588184 C-38.13865971 237.08084278 -38.70971439 235.96580372 -39.29807377 234.81697559 C-41.26520015 230.9322386 -42.86272236 227.58207957 -43.48557377 223.25447559 C-44.39307377 223.17197559 -45.30057377 223.08947559 -46.23557377 223.00447559 C-49.97250887 222.14210595 -51.20602187 221.29387813 -53.48557377 218.25447559 C-58.9699224 196.99043847 -53.33384092 172.84141254 -42.73557377 154.19197559 C-35.14106731 142.10276122 -25.29988629 132.2162949 -13.48557377 124.25447559 C-13.96768314 123.73498341 -14.44979252 123.21549122 -14.94651127 122.68025684 C-15.57815189 121.98287403 -16.20979252 121.28549122 -16.86057377 120.56697559 C-17.48705814 119.88248341 -18.11354252 119.19799122 -18.75901127 118.49275684 C-23.6571732 112.14287724 -23.16529938 104.94060364 -22.48557377 97.25447559 C-20.80471794 90.59488226 -16.02179055 86.06900112 -10.48557377 82.25447559 C-5.64550521 79.52969625 -0.56327776 80.03043298 4.82692623 80.12947559 C6.22394772 80.14301075 6.22394772 80.14301075 7.64919186 80.15681934 C9.93786983 80.18029296 12.22601295 80.21312831 14.51442623 80.25447559 C15.41546302 74.87685918 15.66684672 69.7020124 15.63942623 64.25447559 C15.64329342 63.48619434 15.64716061 62.71791309 15.65114498 61.92635059 C15.64322009 57.26651308 15.28454639 52.85074827 14.51442623 48.25447559 C13.95046139 48.27542286 13.38649654 48.29637012 12.80544186 48.31795216 C10.20862374 48.4019606 7.61209261 48.45339788 5.01442623 48.50447559 C3.68411373 48.55474903 3.68411373 48.55474903 2.32692623 48.60603809 C-5.02301171 48.71412542 -10.16257057 47.16644529 -15.72776127 42.28963184 C-16.26658939 41.63865528 -16.80541752 40.98767872 -17.36057377 40.31697559 C-17.91487064 39.66857716 -18.46916752 39.02017872 -19.04026127 38.35213184 C-23.51969474 31.85090002 -23.16021105 24.88306643 -22.48557377 17.25447559 C-20.80471794 10.59488226 -16.02179055 6.06900112 -10.48557377 2.25447559 C-6.85196401 0.5483505 -4.00180306 0.00366879 0 0 Z " fill="#000000" transform="translate(86.48557376861572,31.745524406433105)"/>
<path d="M0 0 C22.94922234 -0.09279661 45.89839911 -0.16408097 68.84777164 -0.20724869 C79.50478078 -0.22782948 90.16167084 -0.25586394 100.81860352 -0.30175781 C110.11267206 -0.34176329 119.4066543 -0.36746536 128.70080656 -0.37635398 C133.61703808 -0.3815456 138.53302284 -0.39365331 143.44917488 -0.42292023 C148.0875167 -0.45030651 152.72551284 -0.45839867 157.36392784 -0.45243073 C159.05566926 -0.45352068 160.74742366 -0.46133514 162.43909454 -0.4768219 C176.12720358 -0.59586219 188.83167313 1.16789163 201.1875 7.5625 C201.84548584 7.89765625 202.50347168 8.2328125 203.18139648 8.578125 C210.14937256 12.32186 215.54394216 17.34279717 221 23 C221.99580078 23.94939453 221.99580078 23.94939453 223.01171875 24.91796875 C235.39249952 37.52132536 240.67559318 56.81177114 240.54125977 73.96166992 C239.8203846 94.32410041 231.2868078 110.83851507 217 125 C216.36578125 125.66773438 215.7315625 126.33546875 215.078125 127.0234375 C211.03374346 130.97834158 206.42098193 133.60094666 201.4375 136.1875 C200.83139893 136.50879883 200.22529785 136.83009766 199.60083008 137.16113281 C187.04600362 143.34502034 174.50745048 144.5908096 160.78526306 144.50793457 C159.09779419 144.5125542 157.41032936 144.5189142 155.72287279 144.52684355 C151.12779449 144.54341269 146.53305204 144.53534776 141.93797314 144.52289867 C136.96668322 144.51379985 131.99544863 144.52784132 127.02416992 144.53881836 C117.30453706 144.5565533 107.58502814 144.55278709 97.86539053 144.5411678 C89.96771528 144.53211859 82.07007466 144.53091588 74.17239571 144.53526306 C72.4836847 144.53618246 72.4836847 144.53618246 70.76085832 144.53712043 C68.4736167 144.53839937 66.1863751 144.53969622 63.89913351 144.5410108 C42.48302467 144.55240064 21.06698448 144.5393255 -0.3491131 144.51780933 C-18.72683558 144.49991786 -37.10445705 144.50306242 -55.48217773 144.52148438 C-76.83783917 144.54288148 -98.19344065 144.55132523 -119.54911131 144.53903532 C-121.82498673 144.53776114 -124.10086216 144.53650365 -126.37673759 144.53526306 C-128.05632328 144.53433741 -128.05632328 144.53433741 -129.76983999 144.53339306 C-137.6630273 144.52993831 -145.55617657 144.53577072 -153.44935799 144.54518127 C-163.06055214 144.55638875 -172.67161558 144.55338663 -182.28279472 144.5320583 C-187.18688578 144.52153445 -192.09075873 144.51744914 -196.99484825 144.53065491 C-201.48199224 144.54255556 -205.9687155 144.5360549 -210.45582121 144.5147447 C-212.08063286 144.51026903 -213.7054799 144.51256651 -215.33026887 144.52224785 C-217.53646777 144.5343875 -219.74121982 144.52196365 -221.94734287 144.50336456 C-223.17330286 144.50271515 -224.39926284 144.50206574 -225.66237313 144.50139666 C-230.83996933 143.72358969 -233.9098287 141.23749175 -237.3125 137.375 C-240.62098774 132.71860985 -240.62082623 128.60468123 -240 123 C-237.50665497 118.01330993 -234.00649051 114.50324526 -229 112 C-227.37785829 111.9031101 -225.75174876 111.86976549 -224.12671852 111.86692142 C-223.09063473 111.86268038 -222.05455095 111.85843933 -220.98707068 111.85406977 C-219.26648446 111.85464897 -219.26648446 111.85464897 -217.51113892 111.85523987 C-216.29943728 111.85171302 -215.08773564 111.84818618 -213.83931577 111.84455246 C-210.46527661 111.83569444 -207.09128339 111.83130035 -203.717237 111.82870948 C-200.08252492 111.82482226 -196.4478279 111.81518464 -192.81312561 111.80615234 C-186.51129079 111.79119885 -180.20945718 111.77966101 -173.90761185 111.77020454 C-164.79176204 111.75634692 -155.67594008 111.73516152 -146.56011026 111.71177601 C-131.76566601 111.67383783 -116.97121673 111.63887699 -102.17675781 111.60717773 C-100.8477093 111.604327 -100.8477093 111.604327 -99.49181132 111.60141867 C-86.91690933 111.57458512 -74.34200343 111.55071249 -61.76709335 111.52803367 C-60.88166739 111.52643637 -59.99624142 111.52483906 -59.08398438 111.52319336 C-58.19963375 111.52159989 -57.31528312 111.52000643 -56.40413399 111.51836468 C-41.66866913 111.49161494 -26.93323393 111.45722301 -12.19780099 111.41653961 C-3.10307049 111.39173833 5.99162806 111.37342634 15.08638705 111.363384 C21.31676474 111.35600329 27.54709956 111.34149267 33.77744888 111.32131977 C37.37484816 111.3099079 40.97217823 111.30179555 44.56959724 111.30232811 C48.46551435 111.30283316 52.36128664 111.28805706 56.25717163 111.27174377 C57.97106569 111.27566906 57.97106569 111.27566906 59.71958387 111.27967364 C61.28153279 111.26940045 61.28153279 111.26940045 62.87503624 111.25891972 C63.77464872 111.25718347 64.6742612 111.25544722 65.60113466 111.25365835 C68.19406983 110.97947887 69.807701 110.39528976 72 109 C73.38550197 106.22899606 73.1877467 104.0665294 73 101 C71.27773504 97.75150023 71.27773504 97.75150023 68 97 C66.4684175 96.90520541 64.93305432 96.86629625 63.39854908 96.8613348 C62.44857573 96.85586036 61.49860239 96.85038591 60.51984197 96.84474558 C59.47413351 96.84376747 58.42842504 96.84278936 57.35102844 96.84178162 C56.24182248 96.83684364 55.13261651 96.83190566 53.98979825 96.82681805 C50.25402396 96.81139739 46.51826692 96.80307006 42.7824707 96.79467773 C40.11210883 96.7851028 37.44175111 96.77513655 34.77139282 96.76467896 C29.01250745 96.74290943 23.25361975 96.72476668 17.49471474 96.70907402 C9.16826369 96.68637973 0.84183811 96.65823629 -7.48459134 96.62875474 C-20.99305291 96.58107343 -34.50152489 96.5378107 -48.01000977 96.49731445 C-61.13371592 96.45796227 -74.25741283 96.41653671 -87.38110352 96.37231445 C-88.18979115 96.36959018 -88.99847878 96.36686591 -89.83167209 96.36405908 C-93.88854362 96.35037965 -97.945415 96.33665937 -102.00228631 96.32291877 C-135.66817178 96.20894552 -169.33407655 96.10213804 -203 96 C-202.85870667 95.12682129 -202.71741333 94.25364258 -202.57183838 93.35400391 C-202.29699615 91.62029541 -202.29699615 91.62029541 -202.01660156 89.8515625 C-201.83405823 88.71025879 -201.65151489 87.56895508 -201.46343994 86.39306641 C-200.80577886 81.57801374 -200.70743735 76.85214208 -200.75 72 C-200.74226563 71.11828125 -200.73453125 70.2365625 -200.7265625 69.328125 C-200.74803238 61.89954768 -201.83941243 55.54381921 -203 48 C-167.69 48 -132.38 48 -96 48 C-95.67 51.63 -95.34 55.26 -95 59 C-93.30678385 63.81229852 -90.69213525 67.74434877 -86 70 C-80.50252333 71.13358821 -75.61078102 70.84589605 -70.8125 67.8125 C-67.79187279 65.5538822 -64.93866216 63.10504794 -62.05859375 60.671875 C-61.35049561 60.08043701 -60.64239746 59.48899902 -59.9128418 58.87963867 C-58.4850187 57.68003519 -57.07065024 56.46420947 -55.67114258 55.23168945 C-55.01138428 54.6718335 -54.35162598 54.11197754 -53.671875 53.53515625 C-52.79160645 52.76764038 -52.79160645 52.76764038 -51.89355469 51.98461914 C-50 51 -50 51 -47.52026367 51.15283203 C-44.77694663 52.07497774 -43.19290599 53.14141793 -41.00390625 55.01953125 C-39.91819336 55.93508789 -39.91819336 55.93508789 -38.81054688 56.86914062 C-38.06869141 57.51044922 -37.32683594 58.15175781 -36.5625 58.8125 C-26.50654782 67.98878811 -26.50654782 67.98878811 -13.625 70.390625 C-8.92437267 69.69112688 -6.24131443 67.41253021 -3.1875 63.9375 C-1.07183418 60.4856242 -0.76351798 57.27128974 -0.4375 53.3125 C-0.35371094 52.31863281 -0.26992187 51.32476562 -0.18359375 50.30078125 C-0.12300781 49.54152344 -0.06242188 48.78226562 0 48 C20.31477923 47.90646808 40.62951462 47.83597741 60.94446468 47.79275131 C70.37751918 47.77214525 79.81043971 47.74406212 89.2434082 47.69824219 C97.46728293 47.65831445 105.69106062 47.63255297 113.91502959 47.62364602 C118.2676985 47.61844131 122.62008984 47.60624933 126.9726696 47.57707977 C131.07421729 47.54981671 135.17537454 47.54157685 139.27700424 47.54756927 C140.77776147 47.54647388 142.2785325 47.53858486 143.77921104 47.5231781 C153.12123109 47.43201766 160.57015425 48.05185792 168.3046875 53.67578125 C173.45436264 59.04322872 176.09992604 63.80068428 176.4375 71.375 C176.16104547 79.78382522 172.96625632 85.5543809 167.171875 91.4921875 C159.87009611 96.56140809 152.43434174 96.42791938 143.85546875 96.40625 C141.98535881 96.42250427 141.98535881 96.42250427 140.07746887 96.43908691 C135.43922933 96.47905341 130.80108759 96.49314577 126.16271973 96.50531006 C121.60175798 96.51865908 117.04129245 96.5539564 112.48046875 96.59375 C111.27424362 96.59072876 110.06801849 96.58770752 108.82524109 96.58459473 C107.71010635 96.59470581 106.59497162 96.60481689 105.44604492 96.61523438 C103.97333382 96.61831604 103.97333382 96.61831604 102.47087097 96.62145996 C99.60130482 97.06108052 98.70895712 97.69588314 97 100 C96.5285704 101.94457312 96.5285704 101.94457312 96.625 104 C96.61726563 104.680625 96.60953125 105.36125 96.6015625 106.0625 C97.12989054 108.63162461 97.93329116 109.39714845 100 111 C102.50811191 111.46208159 102.50811191 111.46208159 105.36669922 111.40405273 C106.4656955 111.41673691 107.56469177 111.42942108 108.69699097 111.44248962 C110.48280075 111.43808617 110.48280075 111.43808617 112.3046875 111.43359375 C113.53478546 111.4388356 114.76488342 111.44407745 116.03225708 111.44947815 C119.31207744 111.45755895 122.591482 111.45042421 125.87127686 111.43914795 C129.16170723 111.43644176 132.45188181 111.4715519 135.7421875 111.49804688 C138.28385374 111.49966097 140.8255225 111.49907739 143.3671875 111.49609375 C144.53748505 111.50732773 145.70778259 111.51856171 146.9135437 111.53013611 C159.77656974 111.4233997 171.02269789 108.10107671 180.70703125 99.48046875 C187.9471511 91.94707822 191.38209813 80.8898076 191.2109375 70.5859375 C190.3161165 59.61609485 186.34720681 49.87794483 178.375 42.1875 C170.37663061 35.66859778 160.59182304 32.89859533 150.43840027 32.84178162 C149.79301042 32.83684364 149.14762058 32.83190566 148.48267347 32.82681805 C146.32853935 32.81150775 144.17443489 32.80310008 142.02026367 32.79467773 C140.47274517 32.78509412 138.92522926 32.77508375 137.37771606 32.76467896 C133.18188157 32.73767624 128.98603589 32.71664162 124.7901628 32.69667697 C120.4032448 32.67478881 116.01636112 32.64741397 111.62947083 32.62062073 C103.3246118 32.5707321 95.01973369 32.52577907 86.71483737 32.48259836 C77.25901411 32.43319324 67.80322529 32.37828726 58.34743536 32.32291877 C38.89832081 32.20915751 19.44917455 32.10303189 0 32 C0 21.44 0 10.88 0 0 Z " fill="#28CD68" transform="translate(256,320)"/>
<path d="M0 0 C1.2412888 -0.00638882 2.48257761 -0.01277764 3.76148123 -0.01936007 C7.20499833 -0.03198611 10.64713005 -0.02216548 14.09052885 -0.00284529 C17.80511692 0.01257406 21.51961549 -0.00081854 25.23420715 -0.0105896 C32.51217041 -0.02512585 39.78985495 -0.01287054 47.06779183 0.00852364 C55.54839163 0.03253682 64.02892759 0.03081886 72.50955384 0.02821773 C87.64928492 0.02452596 102.78888485 0.04536209 117.92857361 0.07946777 C132.6056907 0.112519 147.28267004 0.12673313 161.95982361 0.1204834 C177.9464831 0.11370952 193.93308485 0.11621103 209.91973585 0.1358428 C210.76638718 0.13688229 211.61303851 0.13792177 212.48534594 0.13899276 C214.18565489 0.14108362 215.88596381 0.14319459 217.58627271 0.14532593 C223.49078889 0.15220632 229.39528724 0.15289329 235.29980659 0.15144348 C242.50586516 0.14999919 249.71181173 0.15977673 256.91783322 0.18338984 C260.59120876 0.19519995 264.26442878 0.20240861 267.93782234 0.19655228 C271.92940971 0.1903771 275.92056442 0.20763476 279.91210938 0.22705078 C281.06048391 0.22172286 282.20885844 0.21639493 283.39203221 0.21090555 C297.90312858 0.33222788 310.40220748 4.18253003 321.15049744 14.18395996 C329.02309082 22.53292046 333.99955167 32.13849663 334.90049744 43.62145996 C334.98170837 44.57665527 335.06291931 45.53185059 335.14659119 46.51599121 C335.75375239 60.55429426 330.23936153 73.03447683 320.90049744 83.30895996 C309.40866323 94.25726147 295.56155362 96.9275246 280.27287292 96.89561462 C279.02322746 96.9008513 277.773582 96.90608798 276.48606849 96.91148335 C273.03855379 96.92558251 269.5911296 96.9273282 266.14359021 96.92688644 C262.41762784 96.92854166 258.691702 96.94162058 254.96575928 96.95307922 C246.83191886 96.97586607 238.69810465 96.98384176 230.56423664 96.98890567 C225.48474808 96.99216749 220.40526706 96.99869256 215.32578278 97.00590706 C201.25692108 97.02545814 187.18806637 97.04187328 173.11919022 97.04478359 C172.22014268 97.04497116 171.32109515 97.04515873 170.39480375 97.04535199 C168.57235225 97.04571823 166.74990075 97.04608193 164.92744926 97.0464431 C164.02281785 97.04662591 163.11818645 97.04680872 162.18614197 97.04699707 C161.28040553 97.04717762 160.37466909 97.04735817 159.44148609 97.04754419 C144.74372261 97.0510909 130.04610517 97.07815093 115.3483924 97.11549496 C100.25223982 97.15354442 85.15615983 97.17294078 70.05995822 97.17324311 C61.58617125 97.17382813 53.11255892 97.18235042 44.63881683 97.21124077 C37.42934157 97.23570874 30.22010475 97.24306813 23.01059923 97.22799324 C19.33185863 97.2208076 15.65358941 97.22175247 11.9749012 97.24440384 C7.98978555 97.26870778 4.00534798 97.25440584 0.02018738 97.2361908 C-1.14584857 97.24939076 -2.31188451 97.26259073 -3.51325488 97.2761907 C-11.31519122 97.1943668 -11.31519122 97.1943668 -15.31792068 94.27053928 C-17.09950256 91.62145996 -17.09950256 91.62145996 -17.72450256 88.62145996 C-16.84496873 84.39969758 -15.57896605 83.19379709 -12.09950256 80.62145996 C-8.27317086 79.87779051 -4.49467918 79.96617697 -0.60742188 80.01586914 C0.56853009 80.01104129 1.74448206 80.00621345 2.95606893 80.0012393 C6.21701709 79.99277098 9.47699264 80.00666453 12.73784101 80.0298841 C16.2560909 80.04943411 19.77427456 80.04003445 23.29255676 80.03395081 C29.38979311 80.02715493 35.48679036 80.03806604 41.58398628 80.06044006 C50.41255204 80.09237136 59.24089463 80.09199249 68.06950276 80.08279961 C82.41057477 80.06827964 96.75157135 80.07237569 111.09263611 80.0916748 C112.38010476 80.09339747 112.38010476 80.09339747 113.69358288 80.09515494 C120.65378813 80.10460739 127.61399199 80.11495879 134.57419586 80.12536335 C140.6480504 80.13440777 146.7219053 80.14309799 152.79576111 80.15124512 C154.07847601 80.15297557 154.07847601 80.15297557 155.38710434 80.15474099 C169.66617787 80.17339549 183.94518612 80.17243087 198.22426313 80.15758371 C207.02526183 80.14938066 215.82590497 80.1587906 224.6268497 80.19117939 C230.66431504 80.21227616 236.7016239 80.21561399 242.73911656 80.20523107 C246.21821544 80.19988293 249.69680433 80.20263252 253.17582893 80.22757149 C256.95747277 80.25047933 260.7378766 80.24243345 264.51953125 80.22705078 C265.60565061 80.24113464 266.69176997 80.2552185 267.81080204 80.26972914 C277.78773979 80.16918259 286.33486477 77.23871911 293.90049744 70.62145996 C295.67073136 68.28659797 295.67073136 68.28659797 297.08799744 65.74645996 C297.57655212 64.92403809 298.06510681 64.10161621 298.56846619 63.25427246 C302.4159601 55.64954843 303.44165441 47.36577231 301.21299744 39.05895996 C300.26321566 36.77948369 299.17756038 34.73383452 297.90049744 32.62145996 C297.51120056 31.92278809 297.12190369 31.22411621 296.72080994 30.50427246 C292.15938323 23.35173945 284.74180259 20.23522834 276.90049744 17.62145996 C274.42239777 17.50126994 271.97315802 17.43345114 269.49424744 17.41833496 C268.77313782 17.41263489 268.0520282 17.40693481 267.30906677 17.40106201 C265.78601036 17.39162686 264.26293366 17.38508393 262.73985291 17.38122559 C260.40892688 17.37149515 258.07887378 17.34044953 255.74815369 17.30895996 C254.26769017 17.30243192 252.78722035 17.29718067 251.30674744 17.29333496 C250.60980774 17.28098816 249.91286804 17.26864136 249.19480896 17.25592041 C246.27970559 17.26936363 244.36938555 17.2824933 241.96470642 19.02087402 C240.64543988 21.00507027 240.46749299 22.2478085 240.46299744 24.62145996 C240.4436615 25.30208496 240.42432556 25.98270996 240.40440369 26.68395996 C240.75830323 28.75024863 240.75830323 28.75024863 242.4964447 30.21936035 C245.73583283 32.10864704 248.12336916 31.99036714 251.86143494 31.99255371 C253.23383323 32.00993906 254.60622901 32.02752341 255.97862244 32.04528809 C258.12678235 32.05534226 260.27477595 32.05896054 262.42295837 32.05725098 C264.50711184 32.06084104 266.59000724 32.08825489 268.67393494 32.11755371 C269.91578552 32.11940674 271.15763611 32.12125977 272.43711853 32.12316895 C277.698338 32.88012291 280.75698535 35.32341922 284.21299744 39.24645996 C287.52148517 43.90285011 287.52132367 48.01677873 286.90049744 53.62145996 C284.68807304 58.04630874 281.95250128 60.81622653 277.90049744 63.62145996 C275.10783175 64.55234852 273.44759531 64.74592871 270.56454182 64.74450779 C269.22840838 64.74749436 269.22840838 64.74749436 267.86528236 64.75054127 C266.88572001 64.74762843 265.90615767 64.74471559 264.89691162 64.74171448 C263.33723326 64.74299611 263.33723326 64.74299611 261.74604625 64.74430364 C258.24518524 64.74595705 254.74437164 64.7404393 251.24351501 64.73498535 C248.74064129 64.73470342 246.23776748 64.73486132 243.7348938 64.73542786 C238.33777056 64.73565593 232.94066222 64.7328107 227.54354286 64.72719002 C219.74018134 64.71906871 211.93682566 64.71645915 204.13346037 64.71520203 C191.47352735 64.7130125 178.81360078 64.70635511 166.15367126 64.69689941 C153.85451795 64.68772273 141.55536638 64.68064315 129.25621033 64.6763916 C128.49830162 64.67612888 127.74039291 64.67586615 126.95951728 64.67559547 C123.15737509 64.67429045 119.3552329 64.67302674 115.55309069 64.67178357 C84.00222159 64.66141405 52.45136049 64.64372418 20.90049744 64.62145996 C21.00646744 63.7232679 21.00646744 63.7232679 21.11457825 62.80693054 C21.20619232 62.01120132 21.2978064 61.21547211 21.39219666 60.39562988 C21.52910416 59.21900032 21.52910416 59.21900032 21.66877747 58.01860046 C22.02620321 54.3210351 22.04576207 50.64576531 22.02549744 46.93395996 C22.02936462 46.21401855 22.03323181 45.49407715 22.03721619 44.75231934 C22.02963345 40.59318778 21.63094877 36.70785282 20.90049744 32.62145996 C22.37924158 32.61926012 22.37924158 32.61926012 23.88785934 32.61701584 C47.85676596 32.58044801 71.82553256 32.52103421 95.79432297 32.43755722 C107.38538094 32.39771952 118.97637054 32.36535108 130.56748962 32.35046387 C140.66834332 32.33747186 150.7690469 32.31057003 160.86981606 32.2668469 C166.21990846 32.24417688 171.56981533 32.22855259 176.91996002 32.22957611 C181.95314229 32.23031946 186.98591358 32.21250011 192.01898956 32.18029213 C193.86850613 32.1717562 195.71806861 32.1700681 197.56759644 32.17565727 C200.08902116 32.18226336 202.60912521 32.16445943 205.13041687 32.14044189 C205.86582758 32.14820231 206.60123828 32.15596273 207.35893416 32.16395831 C210.73962108 32.10677439 212.6019576 31.84159354 215.35487747 29.81167984 C217.608206 26.61860196 217.45391563 24.42621004 216.90049744 20.62145996 C215.15165237 18.60768116 213.71245992 17.73938224 211.0585891 17.35395741 C208.67085844 17.23925644 206.3016839 17.23343472 203.91125488 17.25637817 C202.99256573 17.25325918 202.07387658 17.25014018 201.12734836 17.24692667 C198.04188331 17.23996971 194.95688004 17.25432902 191.8714447 17.26843262 C189.66224578 17.26760204 187.45304701 17.26538655 185.24385071 17.2618866 C180.48296304 17.25693188 175.72219843 17.26104497 170.96132088 17.27190018 C163.43626935 17.28822964 155.91137304 17.27981039 148.38632202 17.26705933 C137.83855267 17.2511939 127.2908065 17.24219347 116.74302673 17.24255371 C116.07371197 17.24257115 115.4043972 17.24258859 114.71480017 17.24260657 C107.24723628 17.24305879 99.77967909 17.24638689 92.31211853 17.253479 C91.64078861 17.25411139 90.96945869 17.25474377 90.27778545 17.25539532 C89.60713425 17.25602788 88.93648305 17.25666045 88.24550909 17.25731218 C86.89311914 17.25858194 85.54072919 17.25984735 84.18833923 17.2611084 C83.18604509 17.26205068 83.18604509 17.26205068 82.16350258 17.26301201 C71.02252298 17.27296515 59.88163491 17.26337071 48.74067348 17.23892438 C41.25710769 17.22365918 33.77401619 17.23121899 26.29047978 17.25563455 C21.63796737 17.26568618 16.98567391 17.25503543 12.3331871 17.23851967 C10.17284078 17.23506014 8.01246133 17.24019844 5.8521595 17.25448799 C2.90644513 17.27276918 -0.03760948 17.26047966 -2.98327637 17.24050903 C-4.27053239 17.25958846 -4.27053239 17.25958846 -5.58379358 17.27905333 C-9.91080768 17.21568066 -11.59850274 17.01013104 -15.1302042 14.27026939 C-17.09950256 11.62145996 -17.09950256 11.62145996 -17.72450256 8.62145996 C-15.75457189 -0.83420727 -7.88678676 -0.08481656 0 0 Z " fill="#FEBD72" transform="translate(97.09950256347656,47.3785400390625)"/>
<path d="M0 0 C1.42760743 -0.00462286 2.85521008 -0.01098497 4.282803 -0.01890898 C8.15960342 -0.03543395 12.03600432 -0.02743407 15.9128052 -0.0149641 C20.11108558 -0.00584679 24.30930121 -0.01991567 28.50756836 -0.03088379 C36.71121015 -0.04859869 44.91470493 -0.04486177 53.1183523 -0.03323323 C59.78462193 -0.0241769 66.45085054 -0.02298437 73.11712456 -0.02732849 C74.06808414 -0.02794142 75.01904372 -0.02855436 75.99882026 -0.02918586 C77.93093087 -0.03046482 79.86304147 -0.03176167 81.79515206 -0.03307623 C99.87635306 -0.04445996 117.95747269 -0.03140013 136.03866034 -0.00987476 C151.55103693 0.00802022 167.06329387 0.0048681 182.57566833 -0.0135498 C200.60885697 -0.03495077 218.64197462 -0.04338885 236.67517418 -0.03110075 C238.59717968 -0.02982658 240.51918519 -0.0285691 242.44119072 -0.02732849 C243.38677556 -0.02671139 244.33236041 -0.02609429 245.30659934 -0.02545848 C251.96897952 -0.0220052 258.63131462 -0.02783292 265.29368782 -0.0372467 C273.40621094 -0.0484583 281.51857922 -0.04544325 289.63108457 -0.02412373 C293.7696384 -0.01360599 297.90793394 -0.00950409 302.0464859 -0.02272034 C305.83419809 -0.03463362 309.62141234 -0.02809987 313.40907931 -0.00681013 C315.42901298 -0.0002212 317.44898118 -0.01328895 319.46887881 -0.02703905 C330.40970384 0.06798606 330.40970384 0.06798606 335.17698669 4.50793457 C339.57591773 9.50131575 340.53375007 12.41808684 340.45823669 18.96887207 C339.90980668 23.91997637 337.17652886 26.60590871 333.61448669 29.82043457 C329.92440188 32.37510868 327.15685722 32.63286763 322.78133488 32.63263321 C321.09054549 32.63621963 321.09054549 32.63621963 319.36559874 32.63987851 C317.49998381 32.63622977 317.49998381 32.63622977 315.59667969 32.63250732 C314.27951224 32.63391747 312.96234479 32.63532762 311.60526317 32.6367805 C308.70724657 32.63984413 305.80925291 32.63972849 302.91123581 32.6372242 C298.19598533 32.63316996 293.48075288 32.63593094 288.76550293 32.63957214 C282.80646843 32.64366549 276.84743795 32.64590184 270.88840204 32.64598814 C259.17142253 32.64619082 247.45448445 32.65864802 235.73751831 32.67559814 C233.89306135 32.67820399 232.04860438 32.6808028 230.2041474 32.68339467 C227.40852008 32.68733324 224.61289277 32.69127975 221.8172655 32.69525589 C211.27221651 32.71020793 200.72716626 32.72382857 190.18211365 32.73596191 C189.21799869 32.73707548 188.25388373 32.73818904 187.26055317 32.73933634 C171.65218339 32.75689494 156.04383954 32.75978162 140.43546153 32.75811151 C124.40716826 32.75683128 108.37897135 32.77459975 92.3507151 32.80912948 C82.46740413 32.82975702 72.58432414 32.83513381 62.70100098 32.82080117 C55.92107878 32.8123247 49.14133569 32.82211906 42.36145128 32.84611067 C38.45306014 32.85938343 34.54509891 32.86466609 30.63671112 32.84799004 C27.05164141 32.83286337 23.4673787 32.8410994 19.88237881 32.86715958 C17.98560412 32.87507081 16.08877482 32.85861809 14.1920653 32.84101701 C2.82634586 32.96766626 -7.48118131 36.59628674 -15.82301331 44.50793457 C-21.9305513 51.08419059 -26.05669096 59.50364702 -26.82301331 68.50793457 C-26.88617737 69.13699707 -26.94934143 69.76605957 -27.01441956 70.41418457 C-27.60870437 80.99628828 -23.57986725 91.46172927 -16.82301331 99.50793457 C-10.88046844 106.03278911 -1.40256017 111.15845971 7.45506287 111.71325684 C8.79322633 111.75484874 10.13154372 111.79170052 11.46995544 111.82434082 C13.40777893 111.88150269 13.40777893 111.88150269 15.38475037 111.93981934 C17.84971985 112.00447388 17.84971985 112.00447388 20.36448669 112.07043457 C28.19167419 112.28699707 28.19167419 112.28699707 36.17698669 112.50793457 C36.17698669 123.06793457 36.17698669 133.62793457 36.17698669 144.50793457 C29.18777937 144.60040479 22.2007451 144.6798512 15.21141052 144.72766113 C12.84024309 144.74761802 10.46912385 144.77479334 8.09812927 144.80969238 C-16.56143905 145.16323458 -35.91631581 141.71853358 -54.23707581 124.21887207 C-56.08718825 122.27932821 -57.78690873 120.36844367 -59.47145081 118.29699707 C-61.70446604 115.38578184 -61.70446604 115.38578184 -64.82301331 113.50793457 C-66.89211923 113.48043979 -66.89211923 113.48043979 -69.01051331 113.88293457 C-70.89770081 114.19230957 -70.89770081 114.19230957 -72.82301331 114.50793457 C-73.979086 112.30445397 -75.12286052 110.09590301 -76.26051331 107.88293457 C-76.58600159 107.26547363 -76.91148987 106.6480127 -77.24684143 106.01184082 C-79.19376806 102.19827319 -80.87629033 98.82929294 -80.82301331 94.50793457 C-79.6183844 93.48119629 -79.6183844 93.48119629 -78.38941956 92.43371582 C-74.2672798 87.73435101 -75.47255194 82.70171973 -75.76051331 76.69543457 C-76.20150305 56.89814514 -71.99654486 39.87404835 -58.32301331 25.00793457 C-56.52170046 23.13732872 -54.68193271 21.32285588 -52.82301331 19.50793457 C-52.17848206 18.84277832 -51.53395081 18.17762207 -50.86988831 17.49230957 C-37.16239215 4.26159589 -18.4499796 -0.12754859 0 0 Z " fill="#49659F" transform="translate(123.82301330566406,159.4920654296875)"/>
<path d="M0 0 C35.31 0 70.62 0 107 0 C107.495 5.445 107.495 5.445 108 11 C109.69321615 15.81229852 112.30786475 19.74434877 117 22 C122.49747667 23.13358821 127.38921898 22.84589605 132.1875 19.8125 C135.20812721 17.5538822 138.06133784 15.10504794 140.94140625 12.671875 C141.64950439 12.08043701 142.35760254 11.48899902 143.0871582 10.87963867 C144.5149813 9.68003519 145.92934976 8.46420947 147.32885742 7.23168945 C147.98861572 6.6718335 148.64837402 6.11197754 149.328125 5.53515625 C149.9149707 5.023479 150.50181641 4.51180176 151.10644531 3.98461914 C153 3 153 3 155.47973633 3.15283203 C158.22305337 4.07497774 159.80709401 5.14141793 161.99609375 7.01953125 C163.08180664 7.93508789 163.08180664 7.93508789 164.18945312 8.86914062 C165.30223633 9.83110352 165.30223633 9.83110352 166.4375 10.8125 C176.49345218 19.98878811 176.49345218 19.98878811 189.375 22.390625 C194.07562733 21.69112688 196.75868557 19.41253021 199.8125 15.9375 C201.92816582 12.4856242 202.23648202 9.27128974 202.5625 5.3125 C202.64628906 4.31863281 202.73007813 3.32476562 202.81640625 2.30078125 C202.87699219 1.54152344 202.93757812 0.78226562 203 0 C223.31477923 -0.09353192 243.62951462 -0.16402259 263.94446468 -0.20724869 C273.37751918 -0.22785475 282.81043971 -0.25593788 292.2434082 -0.30175781 C300.46728293 -0.34168555 308.69106062 -0.36744703 316.91502959 -0.37635398 C321.2676985 -0.38155869 325.62008984 -0.39375067 329.9726696 -0.42292023 C334.07421729 -0.45018329 338.17537454 -0.45842315 342.27700424 -0.45243073 C343.77776147 -0.45352612 345.2785325 -0.46141514 346.77921104 -0.4768219 C356.12123109 -0.56798234 363.57015425 0.05185792 371.3046875 5.67578125 C376.45436264 11.04322872 379.09992604 15.80068428 379.4375 23.375 C379.16104547 31.78382522 375.96625632 37.5543809 370.171875 43.4921875 C362.85898345 48.569123 355.47876805 48.40285452 346.890625 48.3359375 C344.33723699 48.34843972 341.78385155 48.36147636 339.23046875 48.375 C335.22532491 48.37894353 331.22044026 48.37550819 327.21533203 48.36035156 C323.33588148 48.35181174 319.4574828 48.37340065 315.578125 48.3984375 C314.37706116 48.38509369 313.17599731 48.37174988 311.9385376 48.35800171 C305.52931508 48.2248026 305.52931508 48.2248026 300.27636719 51.41259766 C299.85516602 52.26644043 299.43396484 53.1202832 299 54 C298.67 54.66 298.34 55.32 298 56 C291.07 56 284.14 56 277 56 C276.01 54.02 275.02 52.04 274 50 C271.1424006 49.04746687 269.36329304 48.87092058 266.39854908 48.8613348 C265.44857573 48.85586036 264.49860239 48.85038591 263.51984197 48.84474558 C262.47413351 48.84376747 261.42842504 48.84278936 260.35102844 48.84178162 C259.24182248 48.83684364 258.13261651 48.83190566 256.98979825 48.82681805 C253.25402396 48.81139739 249.51826692 48.80307006 245.7824707 48.79467773 C243.11210883 48.7851028 240.44175111 48.77513655 237.77139282 48.76467896 C232.01250745 48.74290943 226.25361975 48.72476668 220.49471474 48.70907402 C212.16826369 48.68637973 203.84183811 48.65823629 195.51540866 48.62875474 C182.00694709 48.58107343 168.49847511 48.5378107 154.98999023 48.49731445 C141.86628408 48.45796227 128.74258717 48.41653671 115.61889648 48.37231445 C114.81020885 48.36959018 114.00152122 48.36686591 113.16832791 48.36405908 C109.11145638 48.35037965 105.054585 48.33665937 100.99771369 48.32291877 C67.33182822 48.20894552 33.66592345 48.10213804 0 48 C0.14129333 47.12682129 0.28258667 46.25364258 0.42816162 45.35400391 C0.70300385 43.62029541 0.70300385 43.62029541 0.98339844 41.8515625 C1.16594177 40.71025879 1.34848511 39.56895508 1.53656006 38.39306641 C2.19422114 33.57801374 2.29256265 28.85214208 2.25 24 C2.25773437 23.11828125 2.26546875 22.2365625 2.2734375 21.328125 C2.25196762 13.89954768 1.16058757 7.54381921 0 0 Z " fill="#EEF1FA" transform="translate(53,368)"/>
<path d="M0 0 C1.82819404 -0.00384491 1.82819404 -0.00384491 3.69332129 -0.0077675 C7.06396971 -0.01184604 10.43409243 -0.00250335 13.80467713 0.01256669 C17.44398791 0.02554702 21.08328305 0.02113618 24.72261047 0.01885986 C31.02386236 0.01728839 37.3250209 0.0266844 43.62624931 0.04357338 C52.73670232 0.06797591 61.84711029 0.07576993 70.95759244 0.07953735 C85.73945914 0.08609987 100.52127613 0.10605562 115.30311584 0.13444519 C129.66053519 0.16199092 144.01794102 0.18322199 158.37538147 0.19596863 C159.26068009 0.1967568 160.14597871 0.19754497 161.05810457 0.19835702 C165.4994792 0.20227219 169.94085394 0.2060633 174.38222873 0.20979273 C211.21583754 0.24088242 248.04938981 0.29371279 284.88294983 0.36076355 C284.67100983 1.56898018 284.67100983 1.56898018 284.45478821 2.80160522 C284.27156006 3.86808792 284.08833191 4.93457062 283.89955139 6.03337097 C283.62573639 7.6128376 283.62573639 7.6128376 283.34638977 9.22421265 C282.68136707 13.72507103 282.5908017 18.13180256 282.63294983 22.67326355 C282.62521545 23.49504089 282.61748108 24.31681824 282.60951233 25.16349792 C282.63384926 33.13992769 283.8033504 40.26376782 284.88294983 48.36076355 C228.45294983 48.36076355 172.02294983 48.36076355 113.88294983 48.36076355 C113.88294983 43.08076355 113.88294983 37.80076355 113.88294983 32.36076355 C118.86341858 31.72599792 118.86341858 31.72599792 123.84388733 31.0912323 C127.17827067 30.65377021 127.17827067 30.65377021 128.88294983 27.36076355 C129.22252546 23.28585603 129.19627469 21.83075084 126.88294983 18.36076355 C123.98231429 17.39388504 122.12486802 17.22867772 119.10733032 17.21359253 C118.12453094 17.20643723 117.14173157 17.19928192 116.12915039 17.19190979 C114.51370079 17.18787643 114.51370079 17.18787643 112.86561584 17.1837616 C111.73043518 17.1771904 110.59525452 17.1706192 109.42567444 17.16384888 C105.66273435 17.14410932 101.89983413 17.13245376 98.13685608 17.1224823 C96.85379011 17.11840677 95.57072414 17.11433125 94.24877739 17.11013222 C88.16191022 17.09142311 82.07506308 17.07685543 75.98817307 17.06852025 C68.96194836 17.05873954 61.93603799 17.03239438 54.90992409 16.99201936 C48.82358076 16.95824412 42.73736989 16.94637742 36.65093803 16.94231606 C34.0613027 16.9374327 31.47167116 16.92576946 28.88209724 16.90727806 C25.26436639 16.88304402 21.64746477 16.88382287 18.02967834 16.89079285 C16.95473618 16.87798279 15.87979401 16.86517273 14.77227783 16.85197449 C9.14349979 16.80435583 9.14349979 16.80435583 4.2175293 19.20263672 C2.37972864 22.17451438 2.31105008 23.92936506 2.88294983 27.36076355 C4.08120153 29.89757445 4.08120153 29.89757445 6.88294983 31.36076355 C10.57865495 31.99355335 14.12221057 32.18168073 17.88294983 32.36076355 C17.88294983 37.64076355 17.88294983 42.92076355 17.88294983 48.36076355 C13.75624478 48.45315247 9.63221077 48.53261087 5.50502014 48.58049011 C4.1045051 48.60046985 2.70407201 48.62766375 1.30384827 48.66252136 C-8.2265193 48.89364297 -15.20333942 48.65051103 -22.57798767 42.21232605 C-28.52667107 35.29242903 -30.63729758 30.29120989 -30.42564392 21.10295105 C-29.6537061 14.24345294 -25.89871559 9.70236437 -21.19126892 4.9037323 C-14.45443804 -0.1076579 -8.12524595 -0.06254519 0 0 Z " fill="#F0F2FA" transform="translate(142.11705017089844,207.6392364501953)"/>
<path d="M0 0 C3.41602015 -0.17446934 6.83089637 -0.28089623 10.25 -0.375 C11.21808594 -0.42527344 12.18617188 -0.47554688 13.18359375 -0.52734375 C15.9128451 -0.58381102 18.32911931 -0.57265686 21 0 C23.546875 2.9609375 23.546875 2.9609375 25 6 C27.91389329 7.45694665 30.51422487 7.1466536 33.765625 7.17578125 C35.14454632 7.19899092 36.5234526 7.22310872 37.90234375 7.24804688 C40.07252908 7.28306566 42.24216504 7.31245135 44.41259766 7.32592773 C46.51011678 7.34149507 48.60603422 7.38176456 50.703125 7.42578125 C51.95770508 7.44036377 53.21228516 7.45494629 54.50488281 7.4699707 C59.77315446 8.26889622 62.84468257 10.68855859 66.3125 14.625 C69.62098774 19.28139015 69.62082623 23.39531877 69 29 C66.78757561 33.42484878 64.05200384 36.19476657 60 39 C57.20733432 39.93088856 55.54709787 40.12446875 52.66404438 40.12304783 C51.32791095 40.1260344 51.32791095 40.1260344 49.96478492 40.12908131 C48.98522258 40.12616847 48.00566023 40.12325563 46.99641418 40.12025452 C45.43673582 40.12153615 45.43673582 40.12153615 43.84554881 40.12284368 C40.3446878 40.12449709 36.84387421 40.11897934 33.34301758 40.11352539 C30.84014385 40.11324346 28.33727004 40.11340136 25.83439636 40.1139679 C20.43727313 40.11419597 15.04016478 40.11135073 9.64304543 40.10573006 C1.8396839 40.09760875 -5.96367178 40.09499919 -13.76703707 40.09374207 C-26.42697008 40.09155254 -39.08689666 40.08489514 -51.74682617 40.07543945 C-64.04597949 40.06626277 -76.34513106 40.05918319 -88.64428711 40.05493164 C-89.40219582 40.05466892 -90.16010452 40.05440619 -90.94098016 40.05413551 C-94.74312234 40.05283049 -98.54526454 40.05156678 -102.34740674 40.05032361 C-133.89827584 40.03995409 -165.44913695 40.02226422 -197 40 C-196.89403 39.10180794 -196.89403 39.10180794 -196.78591919 38.18547058 C-196.69430511 37.38974136 -196.60269104 36.59401215 -196.50830078 35.77416992 C-196.41702911 34.98975021 -196.32575745 34.20533051 -196.23171997 33.3971405 C-195.87429422 29.69957514 -195.85473537 26.02430535 -195.875 22.3125 C-195.87113281 21.59255859 -195.86726563 20.87261719 -195.86328125 20.13085938 C-195.87086399 15.97172781 -196.26954866 12.08639286 -197 8 C-196.01417057 7.99853344 -195.02834114 7.99706688 -194.01263809 7.99555588 C-170.04373147 7.95898805 -146.07496488 7.89957425 -122.10617447 7.81609726 C-110.5151165 7.77625956 -98.92412689 7.74389112 -87.33300781 7.72900391 C-77.23215412 7.7160119 -67.13145054 7.68911007 -57.03068137 7.64538693 C-51.68058898 7.62271692 -46.33068211 7.60709263 -40.98053741 7.60811615 C-35.94735514 7.60885949 -30.91458386 7.59104015 -25.88150787 7.55883217 C-24.0319913 7.55029624 -22.18242883 7.54860814 -20.332901 7.55419731 C-17.81147628 7.5608034 -15.29137223 7.54299947 -12.77008057 7.51898193 C-12.03466986 7.52674235 -11.29925915 7.53450277 -10.54156327 7.54249835 C-7.14474761 7.48504161 -5.31384719 7.23895874 -2.57686996 5.15506363 C-0.82951495 2.99687798 -0.82951495 2.99687798 0 0 Z " fill="#EFF1FA" transform="translate(315,72)"/>
<path d="M0 0 C0.93754692 -0.00538554 1.87509385 -0.01077108 2.84105128 -0.01631981 C5.99635413 -0.03067711 9.15124204 -0.02347646 12.30656433 -0.01637268 C14.56325622 -0.02207226 16.81994522 -0.02903491 19.07662964 -0.03717041 C25.21719621 -0.05516452 31.35762037 -0.05392144 37.49820542 -0.04822803 C42.62006246 -0.04514454 47.74189181 -0.05121939 52.86374491 -0.05726677 C65.63776883 -0.07213648 78.41169173 -0.06848132 91.1857095 -0.05640347 C102.278089 -0.04647563 113.37030159 -0.05940201 124.46265534 -0.08333766 C135.85106629 -0.10772698 147.23937748 -0.11693688 158.6278221 -0.11068493 C165.02199207 -0.10730995 171.41602419 -0.10976614 177.81017494 -0.12693596 C183.82416846 -0.1423788 189.83784302 -0.13847881 195.85182381 -0.11963081 C198.06012154 -0.11593729 200.26844276 -0.11907552 202.4767189 -0.1295166 C205.48981338 -0.14267589 208.50184418 -0.13122326 211.51489258 -0.11352539 C212.39028728 -0.1231304 213.26568198 -0.1327354 214.16760379 -0.14263147 C219.58004394 -0.07715538 222.64875142 0.79898376 226.94792175 4.38768005 C231.34685279 9.38106123 232.30468513 12.29783233 232.22917175 18.84861755 C231.68074174 23.79972185 228.94746392 26.4856542 225.38542175 29.70018005 C222.09387793 31.97894116 219.61151651 32.51269954 215.70567036 32.51072788 C214.83581511 32.51271893 213.96595986 32.51470998 213.06974536 32.51676136 C212.11352871 32.51384852 211.15731206 32.51093568 210.17211914 32.50793457 C209.15683488 32.508789 208.14155062 32.50964342 207.09550017 32.51052374 C203.67755596 32.51217698 200.25966031 32.50665966 196.84172058 32.50120544 C194.3979594 32.50092351 191.95419814 32.50108142 189.51043701 32.50164795 C184.24099917 32.50187601 178.97157658 32.49903101 173.70214272 32.49341011 C166.08339571 32.48528849 158.4646547 32.48267921 150.84590384 32.48142212 C138.48545655 32.47923264 126.12501585 32.47257538 113.76457214 32.46311951 C101.75643446 32.45394269 89.74829856 32.44686317 77.74015808 32.44261169 C77.00017135 32.44234897 76.26018462 32.44208625 75.49777404 32.44181556 C71.78553629 32.44051054 68.07329852 32.43924683 64.36106074 32.43800366 C33.55667628 32.4276343 2.75230002 32.40994456 -28.05207825 32.38768005 C-25.46480185 18.41082662 -15.09440255 -0.1028448 0 0 Z " fill="#677CA9" transform="translate(232.0520782470703,159.61231994628906)"/>
<path d="M0 0 C21.12 0 42.24 0 64 0 C64 44.55 64 89.1 64 135 C57.28104089 130.52069393 57.28104089 130.52069393 54.16015625 127.87109375 C53.48919922 127.31099609 52.81824219 126.75089844 52.12695312 126.17382812 C50.75100823 125.01657646 49.37859771 123.85510938 48.00976562 122.68945312 C42.89326233 118.4363291 38.38748777 115.65143996 31.75 114.375 C22.55167146 115.90805476 15.22398615 123.25469197 8.41552734 129.2668457 C5.64954663 131.69730804 3.33718065 133.33140967 0 135 C0 90.45 0 45.9 0 0 Z " fill="#FE9DB0" transform="translate(176,240)"/>
<path d="M0 0 C25.58195497 -0.09256922 51.16386964 -0.1639648 76.74595833 -0.20724869 C88.62399113 -0.22787973 100.501918 -0.25601082 112.37988281 -0.30175781 C122.73191488 -0.34160882 133.08387023 -0.36742886 143.43597686 -0.37635398 C148.91808879 -0.38157163 154.39998123 -0.39384653 159.88202286 -0.42292023 C165.04152021 -0.45006174 170.20070758 -0.45844748 175.36026955 -0.45243073 C177.25413383 -0.45353152 179.14800843 -0.46149285 181.04181099 -0.4768219 C183.62811849 -0.49673014 186.21325638 -0.49193638 188.79959106 -0.48101807 C189.54863083 -0.49266943 190.2976706 -0.5043208 191.06940854 -0.51632524 C196.18714398 -0.45794643 199.04929107 0.79681224 203 4 C207.39893104 8.99338118 208.35676337 11.91015227 208.28125 18.4609375 C207.73016315 23.43602713 204.99302299 26.12519403 201.375 29.3125 C197.27500219 32.22565634 194.17318689 32.13898919 189.28060913 32.12025452 C188.47444047 32.12110894 187.6682718 32.12196337 186.83767378 32.12284368 C184.12141526 32.12449804 181.40521773 32.11897781 178.68896484 32.11352539 C176.74780784 32.11324348 174.80665072 32.11340132 172.86549377 32.1139679 C167.58271356 32.11425573 162.29995588 32.10836121 157.01718092 32.10139394 C151.50117067 32.09515812 145.98515996 32.09455642 140.46914673 32.09336853 C130.01795638 32.09025589 119.56677645 32.0820434 109.11559069 32.07201904 C97.21976237 32.06085582 85.32393356 32.05534693 73.4281013 32.05032361 C48.95206156 32.03986074 24.4760318 32.02206202 0 32 C0 21.44 0 10.88 0 0 Z " fill="#677CA9" transform="translate(256,272)"/>
<path d="M0 0 C1.06224511 -0.00128164 1.06224511 -0.00128164 2.14594972 -0.00258917 C4.53054252 -0.00424273 6.91506573 0.00127539 9.2996521 0.00672913 C11.00435891 0.00701105 12.70906584 0.00685316 14.41377258 0.00628662 C19.05194655 0.00599885 23.69009483 0.01189229 28.32826281 0.01886058 C33.17161969 0.02509751 38.01497712 0.02569819 42.8583374 0.02688599 C52.03455362 0.0299983 61.21075798 0.03821034 70.38696897 0.04823548 C80.83179688 0.05939972 91.27662534 0.06490785 101.72145772 0.06993091 C123.21155909 0.08039303 144.70164977 0.09799054 166.19174194 0.12025452 C166.65789917 1.34494446 167.1240564 2.5696344 167.6043396 3.83143616 C168.22962274 5.46033979 168.85512252 7.08916027 169.48080444 8.71791077 C169.78639282 9.52248718 170.0919812 10.3270636 170.40682983 11.15602112 C172.55756547 16.7374216 175.00375209 21.88729859 178.02767944 27.05384827 C179.19174194 29.12025452 179.19174194 29.12025452 180.19174194 32.12025452 C155.91363279 32.21367547 131.63555056 32.28422281 107.3572979 32.3275032 C96.08460356 32.34813274 84.81202087 32.37626094 73.53939819 32.42201233 C63.71474322 32.46186796 53.8901691 32.48768448 44.06543553 32.4966085 C38.86277516 32.50182537 33.66034612 32.51409526 28.45775986 32.54317474 C23.56090638 32.57032361 18.66437955 32.57870053 13.76745796 32.57268524 C11.9703462 32.57378571 10.17322352 32.58174273 8.37617683 32.59707642 C5.92122122 32.61699641 3.46749667 32.61218691 1.01251221 32.60127258 C0.30238192 32.61292395 -0.40774836 32.62457531 -1.13939774 32.63657975 C-6.1444372 32.57648835 -8.93948912 31.22898126 -12.80825806 28.12025452 C-17.20718909 23.12687334 -18.16502143 20.21010224 -18.08950806 13.65931702 C-17.53842121 8.68422739 -14.80128105 5.99506049 -11.18325806 2.80775452 C-7.19472162 -0.02620558 -4.9051454 -0.00354931 0 0 Z " fill="#00C03F" transform="translate(33.808258056640625,431.87974548339844)"/>
<path d="M0 0 C1.12183182 -0.00137466 2.24366364 -0.00274933 3.39949036 -0.00416565 C4.63594803 -0.00057037 5.8724057 0.0030249 7.14633179 0.00672913 C8.44384872 0.0065831 9.74136566 0.00643707 11.07820129 0.00628662 C14.64203255 0.00599902 18.20583034 0.01188977 21.7696538 0.01886058 C25.49192162 0.02510027 29.21419016 0.0256984 32.9364624 0.02688599 C39.98772231 0.02999748 47.03896676 0.03820843 54.09021986 0.04823548 C62.11671356 0.05940224 70.143208 0.06490849 78.16970754 0.06993091 C94.68324771 0.08039119 111.1967666 0.09873442 127.71029663 0.12025452 C127.71029663 10.68025452 127.71029663 21.24025452 127.71029663 32.12025452 C110.47286392 32.21057925 93.23563343 32.28425058 75.99802971 32.3275032 C67.99415484 32.34812072 59.99043754 32.37622568 51.98666382 32.42201233 C45.00984501 32.46190509 38.03314033 32.48769323 31.05621064 32.4966085 C27.36257493 32.50181918 23.66926569 32.5140488 19.97573471 32.54317474 C15.85048748 32.57544062 11.72580637 32.57621237 7.60043335 32.57435608 C5.7673185 32.59592773 5.7673185 32.59592773 3.89717102 32.61793518 C-2.46168161 32.5869193 -6.5044333 32.48975348 -11.28970337 28.12025452 C-15.68863441 23.12687334 -16.64646674 20.21010224 -16.57095337 13.65931702 C-16.01986652 8.68422739 -13.28272636 5.99506049 -9.66470337 2.80775452 C-6.12149484 0.29021162 -4.3132485 -0.00406144 0 0 Z " fill="#00C03F" transform="translate(32.289703369140625,319.87974548339844)"/>
<path d="M0 0 C7.26 0 14.52 0 22 0 C22.42484776 15.21170699 22.79453792 30.42257489 23.06470966 45.63774681 C23.19192249 52.7033742 23.34348547 59.76687416 23.5534668 66.83056641 C23.75615606 73.65130241 23.88952784 80.4706322 23.98122215 87.29375076 C24.0273759 89.89287635 24.09651971 92.49170125 24.18929482 95.08958054 C24.93208891 116.54427007 24.93208891 116.54427007 20.21737671 121.73223877 C17.11489523 124.40835169 13.66391312 126.18043069 10 128 C8.21811728 129.33342378 6.46054872 130.7012205 4.75 132.125 C1.11981567 135 1.11981567 135 0 135 C0 90.45 0 45.9 0 0 Z " fill="#FE748E" transform="translate(176,240)"/>
<path d="M0 0 C1.25584396 -0.02000565 2.51168793 -0.04001129 3.80558777 -0.06062317 C7.24380542 -0.113244 10.68145407 -0.13327522 14.1200316 -0.14409184 C16.27084462 -0.15210177 18.42151069 -0.16672406 20.57227135 -0.18359184 C28.08340969 -0.24179839 35.59411428 -0.27201363 43.10546875 -0.27832031 C50.09508773 -0.28498807 57.08213451 -0.35530122 64.07099038 -0.45487314 C70.08145243 -0.53747934 76.09106613 -0.57360168 82.10209197 -0.57435697 C85.68819326 -0.57568535 89.2717332 -0.59581845 92.85724831 -0.66353035 C96.86107774 -0.73739558 100.85889081 -0.71466033 104.86328125 -0.68359375 C106.04225983 -0.71888184 107.2212384 -0.75416992 108.4359436 -0.79052734 C111.88776138 -0.71592606 114.41057151 -0.51472316 117.62573242 0.75805664 C121.06948768 4.38471266 123.380744 8.31056531 125.62573242 12.75805664 C126.02435895 13.54510451 126.42298548 14.33215239 126.8336916 15.14305019 C127.09506507 15.67600232 127.35643854 16.20895445 127.62573242 16.75805664 C109.45841834 16.87485247 91.29120169 16.96302631 73.12359333 17.0171175 C64.68806217 17.04290045 56.25276426 17.0780525 47.81738281 17.13525391 C40.46518317 17.18508636 33.11315245 17.217347 25.76078862 17.22849911 C21.86758367 17.23501825 17.97486198 17.25034114 14.0818119 17.28670692 C10.41685238 17.32066445 6.75257481 17.33111045 3.08747292 17.32359505 C1.10236537 17.32562486 -0.88266802 17.35252145 -2.86758423 17.38015747 C-12.57178312 17.32386359 -12.57178312 17.32386359 -15.67390442 14.41007996 C-17.78693872 11.11442149 -18.17420103 9.5977372 -17.37426758 5.75805664 C-13.00404023 -0.77653132 -7.33748531 0.00542492 0 0 Z " fill="#FEA83E" transform="translate(97.374267578125,127.241943359375)"/>
<path d="M0 0 C1.27844788 -0.00073013 2.55689575 -0.00146027 3.87408447 -0.00221252 C7.37196395 -0.00364512 10.86898336 0.02571762 14.36666322 0.06065726 C18.02480836 0.09194775 21.68297398 0.09485359 25.3412323 0.1007843 C32.26507723 0.11631496 39.18852667 0.15733246 46.11219758 0.20753175 C53.99602534 0.26344978 61.87987215 0.29091783 69.7638489 0.31600893 C85.97845813 0.36824937 102.19266978 0.45617601 118.40698242 0.56762695 C116.65891113 6.03499886 114.74904161 11.32587543 112.40698242 16.56762695 C96.19542074 16.68444627 79.98399566 16.77260798 63.77211475 16.82668781 C56.24458048 16.85246588 48.71730778 16.88760833 41.18994141 16.94482422 C34.62880726 16.99467194 28.06786254 17.02692088 21.50654429 17.03806943 C18.03249866 17.04458606 14.55899494 17.05989228 11.08512306 17.09627724 C7.20638524 17.13657291 3.32817681 17.13757549 -0.55078125 17.13525391 C-1.70164719 17.15323029 -2.85251312 17.17120667 -4.03825378 17.18972778 C-11.81064063 17.13926494 -11.81064063 17.13926494 -15.80659485 14.21965027 C-17.59301758 11.56762695 -17.59301758 11.56762695 -18.21801758 8.56762695 C-17.5743931 5.47822948 -16.76064692 3.7801697 -14.4559269 1.61344337 C-10.15171547 -0.8028927 -4.78989844 -0.07133981 0 0 Z " fill="#FEA83E" transform="translate(97.593017578125,47.432373046875)"/>
</svg>
